<svg xmlns="http://www.w3.org/2000/svg" viewBox="0 0 83.26 77.71"><defs><style>.cls-1{fill:#ed6b6e;}</style></defs><title>Middel 1</title><g id="Laag_2" data-name="Laag 2"><g id="Laag_1-2" data-name="Laag 1"><path class="cls-1" d="M41.63,57.32a1.5,1.5,0,0,1-1.06-.44L26.09,42.4a1.5,1.5,0,0,1,0-2.12L40.57,25.8a1.5,1.5,0,0,1,2.12,0L57.17,40.28a1.5,1.5,0,0,1,0,2.12L42.69,56.88A1.5,1.5,0,0,1,41.63,57.32Zm-12.36-16L41.63,53.7,54,41.34,41.63,29Z"/><path class="cls-1" d="M21.25,77.71a1.49,1.49,0,0,1-.76-.21,41.63,41.63,0,1,1,42.28,0,1.5,1.5,0,0,1-1.53-2.58,38.63,38.63,0,1,0-39.23,0,1.5,1.5,0,0,1-.76,2.79Z"/><path class="cls-1" d="M41.63,28.36a1.5,1.5,0,0,1-1.5-1.5V1.5a1.5,1.5,0,1,1,3,0V26.86A1.5,1.5,0,0,1,41.63,28.36Z"/><path class="cls-1" d="M60.74,62.32a1.5,1.5,0,0,1-1.05-2.57,25.8,25.8,0,0,0-8.61-42.41,1.5,1.5,0,0,1,1.1-2.79,28.8,28.8,0,0,1,9.61,47.34A1.5,1.5,0,0,1,60.74,62.32Z"/><path class="cls-1" d="M22.49,62.3a1.49,1.49,0,0,1-1.05-.43A28.8,28.8,0,0,1,31.1,14.53a1.5,1.5,0,1,1,1.1,2.79,25.8,25.8,0,0,0-8.66,42.41,1.5,1.5,0,0,1-1.05,2.57Z"/><path class="cls-1" d="M21.25,77.71a1.5,1.5,0,0,1-1.06-2.56L40.57,54.76a1.5,1.5,0,0,1,2.12,2.12L22.31,77.27A1.49,1.49,0,0,1,21.25,77.71Z"/><path class="cls-1" d="M62,77.7a1.5,1.5,0,0,1-1.06-.44L40.57,56.88a1.5,1.5,0,1,1,2.12-2.12L63.07,75.14A1.5,1.5,0,0,1,62,77.7Z"/></g></g></svg>