<?xml version="1.0" standalone="no"?>
<!DOCTYPE svg PUBLIC "-//W3C//DTD SVG 1.1//EN" "http://www.w3.org/Graphics/SVG/1.1/DTD/svg11.dtd" >
<svg xmlns="http://www.w3.org/2000/svg">
<metadata>
Created by FontPrep 20130207 at Wed Mar  4 08:55:40 2015
 By Jeroen Reumkens
(c) 2011 Klim Type Foundry. All rights reserved.
</metadata>
<defs>
<font id="98292a1e4407be9097aa202a1c7584b2" horiz-adv-x='1024' >
  <font-face 
    font-family="Calibre-Regular"
    font-weight="400"
    font-stretch="normal"
    units-per-em="2048"
    panose-1="2 0 5 3 0 0 0 0 0 0"
    ascent="1331"
    descent="-717"
    x-height="909"
    cap-height="1257"
    bbox="-39 -375 1661 1681"
    underline-thickness="61"
    underline-position="-82"
    unicode-range="U+0020-00FF"
  />
<missing-glyph 
 />
    <glyph glyph-name=".notdef" 
 />
    <glyph glyph-name=".null" horiz-adv-x="0" 
 />
    <glyph glyph-name="nonmarkingreturn" horiz-adv-x="681" 
 />
    <glyph glyph-name="space" unicode=" " horiz-adv-x="452" 
 />
    <glyph glyph-name="exclam" unicode="!" horiz-adv-x="415" 
d="M152 395l-35 862h182l-37 -862h-110zM98 100q0 47 32 80t78 33t78 -33t32 -80t-31 -80q-33 -30 -79 -30t-78 32t-32 78z" />
    <glyph glyph-name="quotedbl" unicode="&#x22;" horiz-adv-x="542" 
d="M326 809v448h135v-448h-135zM82 809v448h135v-448h-135z" />
    <glyph glyph-name="numbersign" unicode="#" horiz-adv-x="1179" 
d="M479 776l-69 -295h288l70 295h-289zM1047 481l-25 -121h-213l-86 -360h-139l86 360h-289l-86 -360h-137l86 360h-197l27 121h198l70 295h-209l25 121h213l86 360h139l-88 -360h289l88 360h137l-86 -360h194l-24 -121h-199l-69 -295h209z" />
    <glyph glyph-name="dollar" unicode="$" horiz-adv-x="976" 
d="M430 -182v202q-143 14 -246 99q-102 86 -129 221h156q66 -188 293 -188q116 0 188 54t72 148q0 141 -186 187l-209 55q-285 70 -285 311q0 139 96 232q98 92 250 100v184h141v-190q264 -45 328 -305h-151q-57 180 -279 180q-109 0 -173 -52t-65 -134q0 -82 48 -121
q41 -39 141 -68l198 -51q291 -76 291 -322q0 -145 -94 -235t-244 -105v-202h-141z" />
    <glyph glyph-name="percent" unicode="%" horiz-adv-x="1314" 
d="M1126 254q0 63 -44 107q-44 45 -107 45t-109 -44t-45 -108q0 -62 45 -108q44 -46 108 -46t108 46t44 108zM612 1004q0 -115 -80 -193q-76 -80 -192 -80t-193 80q-80 78 -79 193q0 115 79 192q76 80 193 80t192 -80q80 -77 80 -192zM1247 255q0 -116 -79 -195
q-80 -78 -194 -78t-192 79q-80 76 -80 192t80 193q78 80 193 80t192 -80q80 -75 80 -191zM188 1004q0 -64 44 -108t108 -44t108 44q46 44 46 108t-45 108q-45 45 -109 45t-108 -45t-44 -108zM203 0l784 1257h127l-784 -1257h-127z" />
    <glyph glyph-name="ampersand" unicode="&#x26;" horiz-adv-x="1198" 
d="M487 111q168 0 275 112l-367 391q-74 -30 -121 -98t-47 -165t72 -169q75 -71 188 -71zM551 1151q-84 0 -138 -51t-55 -137q0 -100 136 -236l352 -375q53 125 59 279h144q-6 -211 -109 -381l236 -250h-203l-125 131q-150 -150 -361 -149q-179 0 -293 108t-114 277
q0 113 64 203t165 141q-100 121 -100 257t96 222t248 86t241 -85t95 -220h-154q-2 76 -51 131q-49 49 -133 49z" />
    <glyph glyph-name="quotesingle" unicode="'" horiz-adv-x="303" 
d="M82 809v448h139v-448h-139z" />
    <glyph glyph-name="parenleft" unicode="(" horiz-adv-x="657" 
d="M61 580q0 280 150 484t399 267v-164q-172 -43 -284 -199t-111 -388q0 -231 112 -388t283 -200v-164q-250 63 -400 267t-149 485z" />
    <glyph glyph-name="parenright" unicode=")" horiz-adv-x="657" 
d="M596 580q0 -283 -150 -484q-147 -205 -399 -268v164q170 43 283 200t112 388q0 231 -112 388t-283 199v164q252 -63 399 -268q150 -200 150 -483z" />
    <glyph glyph-name="asterisk" unicode="*" horiz-adv-x="679" 
d="M295 1329h90v-213l186 107l45 -78l-186 -109l186 -106l-45 -78l-186 106v-215h-90v215l-186 -106l-46 78l185 106l-185 109l46 78l186 -107v213z" />
    <glyph glyph-name="plus" unicode="+" horiz-adv-x="1105" 
d="M489 1012h127v-340h340v-127h-340v-340h-127v340h-339v127h339v340z" />
    <glyph glyph-name="comma" unicode="," horiz-adv-x="350" 
d="M66 100q0 47 32 78t78 31q47 0 78 -32t31 -89t-45 -127l-109 -180h-104l129 217q-90 16 -90 102z" />
    <glyph glyph-name="hyphen" unicode="-" horiz-adv-x="657" 
d="M82 463v143h493v-143h-493z" />
    <glyph glyph-name="period" unicode="." horiz-adv-x="350" 
d="M66 100q0 47 32 80t77 33q46 0 78 -33t32 -80t-31 -80q-33 -30 -79 -30q-45 0 -77 32t-32 78z" />
    <glyph glyph-name="slash" unicode="/" horiz-adv-x="681" 
d="M10 -172l508 1503h154l-508 -1503h-154z" />
    <glyph glyph-name="zero" unicode="0" horiz-adv-x="1101" 
d="M550 1130q-148 0 -231 -137q-79 -139 -79 -364t79 -365q83 -137 231 -137t230 139q82 132 82 362t-82 363q-82 139 -230 139zM551 -18q-209 0 -339 179t-130 468t130 468t339 179t339 -179t130 -468t-130 -468t-339 -179z" />
    <glyph glyph-name="one" unicode="1" horiz-adv-x="673" 
d="M520 1260v-1260h-158v1065l-311 -160v164l373 191h96z" />
    <glyph glyph-name="two" unicode="2" horiz-adv-x="935" 
d="M698 920q0 98 -61 153q-59 59 -168 59t-173 -68q-64 -69 -71 -183h-166q18 179 130 287t286 108q175 0 277 -96t102 -258q0 -29 -13 -79t-34 -89l-31 -52q-8 -14 -41 -53l-41 -49q-2 -2 -32 -36t-48 -52l-14 -18l-319 -351h600v-143h-822v106l406 447q35 39 76 84t61 67
t58 91q38 68 38 125z" />
    <glyph glyph-name="three" unicode="3" horiz-adv-x="942" 
d="M377 575v138h84q104 0 170 56q65 55 65 151t-61 157q-66 59 -170 59t-169 -60q-65 -62 -79 -163h-158q19 159 131 261t284 102t271 -96q104 -92 105 -248q0 -102 -54 -181t-143 -106q101 -29 161 -107t60 -186q0 -158 -108 -266q-111 -104 -294 -104t-304 102
q-117 102 -133 274h158q14 -106 86 -172q71 -66 187 -65q116 0 186 62q70 61 69 165q0 104 -72 166t-184 61h-88z" />
    <glyph glyph-name="four" unicode="4" horiz-adv-x="1042" 
d="M625 420v303h149v-303h221v-135h-221v-285h-149v285h-580v114l483 858h164l-469 -837h402z" />
    <glyph glyph-name="five" unicode="5" horiz-adv-x="960" 
d="M477 676q-125 0 -215 -109h-127v690h688v-143h-553v-379q90 80 247 80t267 -118t111 -297q0 -179 -114 -299q-114 -119 -295 -119q-182 0 -296 102t-135 274h158q43 -238 274 -237q115 0 186 79q71 78 71 196t-72 199q-70 81 -195 81z" />
    <glyph glyph-name="six" unicode="6" 
d="M543 1143q-139 0 -229 -138t-89 -343v-27q2 -16 2 -29q33 98 121 156t197 59q178 0 293 -123q114 -123 114 -298t-116 -298q-117 -121 -306 -120q-256 0 -374 239q-74 156 -74 385q0 301 127 488q129 182 334 182q311 0 391 -311h-160q-57 178 -231 178zM532 688
q-120 0 -196 -79t-76 -206t77 -205t195 -79q118 0 195 78q76 79 76 205t-76 206t-195 80z" />
    <glyph glyph-name="seven" unicode="7" horiz-adv-x="901" 
d="M37 1114v143h813v-124l-449 -1133h-161l444 1114h-647z" />
    <glyph glyph-name="eight" unicode="8" horiz-adv-x="997" 
d="M928 342q0 -158 -121 -259t-308 -101t-308 101t-121 259q0 121 68 206t177 114q-92 30 -146 106t-54 176q0 150 110 240q107 92 273 92t276 -91t109 -241q-1 -100 -57 -175t-144 -107q104 -27 175 -113t71 -207zM501 729q99 0 164 58q65 59 65 151t-66 147
q-60 59 -164 59t-166 -59q-66 -55 -66 -146t66 -153q68 -57 167 -57zM497 113q120 0 199 67q76 70 76 174t-76 174q-82 66 -200 66t-194 -66q-77 -66 -77 -174t78 -174q74 -67 194 -67z" />
    <glyph glyph-name="nine" unicode="9" 
d="M481 115q139 0 229 138t89 343v27q-2 16 -2 28q-33 -98 -121 -156t-197 -59q-178 0 -293 123q-114 123 -114 298t116 298q117 121 306 121q256 0 374 -240q74 -156 74 -385q0 -301 -127 -487q-129 -182 -334 -182q-311 0 -391 311h160q57 -178 231 -178zM492 569
q120 0 196 79t76 206t-77 206t-195 79t-194 -78q-77 -78 -77 -205t76 -207t195 -80z" />
    <glyph glyph-name="colon" unicode=":" horiz-adv-x="350" 
d="M66 743q0 47 32 80t77 33q46 0 78 -33t32 -80t-31 -79q-33 -31 -79 -31q-45 -1 -77 31t-32 79zM66 100q0 47 32 80t77 33q46 0 78 -33t32 -80t-31 -80q-33 -30 -79 -30q-45 0 -77 32t-32 78z" />
    <glyph glyph-name="semicolon" unicode=";" horiz-adv-x="350" 
d="M66 743q0 47 32 80t77 33q46 0 78 -33t32 -80t-31 -79q-33 -31 -79 -31q-45 -1 -77 31t-32 79zM66 100q0 47 32 78t78 31q47 0 78 -32t31 -89t-45 -127l-109 -180h-104l129 217q-90 16 -90 102z" />
    <glyph glyph-name="less" unicode="&#x3c;" horiz-adv-x="866" 
d="M127 524v160l606 309v-145l-487 -244l487 -244v-145z" />
    <glyph glyph-name="equal" unicode="=" horiz-adv-x="1128" 
d="M162 690v123h807v-123h-807zM162 408v118h807v-118h-807z" />
    <glyph glyph-name="greater" unicode="&#x3e;" horiz-adv-x="866" 
d="M741 684v-160l-608 -309v145l488 244l-488 244v145z" />
    <glyph glyph-name="question" unicode="?" horiz-adv-x="884" 
d="M836 924q0 -33 -5 -47q0 -25 -10 -49q-10 -23 -13 -31q-3 -7 -6 -17t-24 -37l-24 -36q-4 -11 -22 -29t-27 -32q-10 -14 -13 -13l-65 -70q-86 -92 -88 -168h-152q3 118 89 212q32 36 77 83q45 48 67 74t39 72q20 41 21 86q0 94 -60 152t-168 58t-171 -68q-63 -69 -74 -183
h-166q18 179 131 287t288 108t273 -96q103 -92 103 -256zM348 100q0 47 32 80t78 33t78 -33t32 -80t-31 -80q-33 -30 -79 -30t-78 32t-32 78z" />
    <glyph glyph-name="at" unicode="@" horiz-adv-x="1585" 
d="M817 672q-106 0 -174 -90q-65 -94 -65 -192t42 -148q42 -51 115 -52q111 0 187 119l47 254q-20 49 -60 78q-37 31 -92 31zM1141 172q113 0 185 102t71 281q0 223 -156 356t-399 133q-285 0 -469 -186q-180 -190 -180 -473q0 -159 57 -275t156 -184q198 -127 439 -127
t443 95v-117q-195 -92 -447 -92t-444 106q-209 113 -288 332q-43 121 -43 262q0 328 217 551t559 223q299 0 488 -172q190 -172 190 -421t-118 -377t-282 -128q-76 0 -129 32t-76 87q-29 -47 -88 -82t-120 -35q-125 0 -199 87q-72 88 -72 217q0 174 105 303q106 129 268 129
q129 0 186 -94l15 75h137l-88 -497q-18 -111 82 -111z" />
    <glyph glyph-name="A" unicode="A" horiz-adv-x="1220" 
d="M608 1057l-205 -537h410zM535 1257h151l492 -1257h-164l-146 379h-518l-143 -379h-164z" />
    <glyph glyph-name="B" unicode="B" horiz-adv-x="1101" 
d="M307 575v-434h297q127 0 193 60q67 55 67 156t-66 159t-194 59h-297zM307 711h256q260 1 260 203t-260 202h-256v-405zM604 0h-454v1257h413q199 0 307 -86t109 -247q0 -106 -52 -177t-132 -96q100 -27 163 -109t64 -188q0 -170 -111 -262t-307 -92z" />
    <glyph glyph-name="C" unicode="C" horiz-adv-x="1200" 
d="M76 629q0 289 161 468t402 179q195 0 323 -104t166 -283h-159q-86 242 -330 241q-182 0 -291 -139q-110 -135 -110 -360t110 -365q111 -139 291 -139q246 0 330 244h159q-39 -180 -165 -285q-129 -104 -324 -104q-243 0 -403 179t-160 468z" />
    <glyph glyph-name="D" unicode="D" horiz-adv-x="1239" 
d="M150 0v1257h403q276 0 442 -172q168 -169 168 -457t-168 -456q-166 -172 -442 -172h-403zM311 145h240q211 0 334 129q119 136 119 356t-120 352t-333 132h-240v-969z" />
    <glyph glyph-name="E" unicode="E" horiz-adv-x="1054" 
d="M150 1257h800v-143h-641v-397h582v-144h-582v-428h641v-145h-800v1257z" />
    <glyph glyph-name="F" unicode="F" horiz-adv-x="993" 
d="M311 0h-161v1257h768v-143h-607v-424h570v-143h-570v-547z" />
    <glyph glyph-name="G" unicode="G" horiz-adv-x="1249" 
d="M719 481v140h455v-86q0 -254 -146 -402q-141 -151 -384 -151q-244 0 -406 179t-162 467t164 468t409 180q197 0 326 -104t170 -283h-162q-88 242 -334 241q-188 0 -297 -139q-114 -133 -114 -360t114 -367q115 -139 291 -139t266 96q95 88 111 260h-301z" />
    <glyph glyph-name="H" unicode="H" horiz-adv-x="1333" 
d="M1022 1257h162v-1257h-162v573h-711v-573h-161v1257h161v-538h711v538z" />
    <glyph glyph-name="I" unicode="I" horiz-adv-x="460" 
d="M311 1257v-1257h-161v1257h161z" />
    <glyph glyph-name="J" unicode="J" horiz-adv-x="980" 
d="M444 129q250 0 250 289v839h162v-839q0 -213 -112 -325q-112 -111 -296 -111t-292 102t-121 272h166q12 -106 75 -168q66 -59 168 -59z" />
    <glyph glyph-name="K" unicode="K" horiz-adv-x="1155" 
d="M311 1257v-628l586 628h205l-539 -573l557 -684h-200l-474 573l-135 -145v-428h-161v1257h161z" />
    <glyph glyph-name="L" unicode="L" horiz-adv-x="1032" 
d="M150 0v1257h161v-1112h641v-145h-802z" />
    <glyph glyph-name="M" unicode="M" horiz-adv-x="1507" 
d="M303 0h-153v1257h182l426 -1032l424 1032h176v-1257h-154v958l-393 -958h-111l-397 958v-958z" />
    <glyph glyph-name="N" unicode="N" horiz-adv-x="1275" 
d="M1126 1257v-1257h-118l-703 999v-999h-155v1257h153l670 -956v956h153z" />
    <glyph glyph-name="O" unicode="O" horiz-adv-x="1288" 
d="M1051 629q0 223 -113 362q-115 139 -294 139t-293 -139q-113 -139 -113 -362t112 -363q115 -139 294 -139t294 139q113 140 113 363zM1212 629q0 -287 -159 -465q-158 -182 -409 -182t-408 182q-160 178 -160 465t160 465q158 182 408 182t409 -182q159 -178 159 -465z
" />
    <glyph glyph-name="P" unicode="P" horiz-adv-x="1099" 
d="M616 647q126 0 192 64q66 65 66 173t-67 169q-63 63 -191 63h-305v-469h305zM621 504h-310v-504h-161v1257h471q195 0 305 -97t108 -280q0 -184 -110 -280t-303 -96z" />
    <glyph glyph-name="Q" unicode="Q" horiz-adv-x="1286" 
d="M1051 620q0 232 -113 371q-115 139 -294 139t-293 -139q-113 -139 -113 -362t112 -363q115 -139 293 -139q109 0 188 43l-106 135l111 82l102 -131q113 132 113 364zM76 629q0 287 160 465q158 182 408 182t409 -182q159 -178 159 -471t-182 -482l105 -131l-111 -84
l-102 129q-129 -74 -279 -73q-250 0 -407 182q-160 178 -160 465z" />
    <glyph glyph-name="R" unicode="R" horiz-adv-x="1130" 
d="M311 1116v-446h301q121 0 191 59q65 59 65 163t-65 165q-70 59 -191 59h-301zM311 532v-532h-161v1257h466q195 0 304 -94q108 -94 108 -259q-1 -319 -319 -365l370 -539h-184l-360 532h-224z" />
    <glyph glyph-name="S" unicode="S" horiz-adv-x="1042" 
d="M530 119q121 0 203 57q76 64 76 150t-46 134t-155 77l-225 59q-301 76 -301 324q0 158 116 257t301 99t304 -88q117 -92 153 -244h-161q-68 195 -299 195q-117 -1 -189 -57q-71 -56 -71 -142t47 -129t153 -72l215 -55q313 -80 314 -338q0 -168 -122 -266
q-123 -98 -313 -98t-319 91t-164 255h164q72 -209 319 -209z" />
    <glyph glyph-name="T" unicode="T" horiz-adv-x="1161" 
d="M61 1114v143h1039v-143h-438v-1114h-162v1114h-439z" />
    <glyph glyph-name="U" unicode="U" horiz-adv-x="1243" 
d="M1114 498q0 -252 -136 -384t-356 -132t-356 132t-137 386v757h160v-739q0 -199 89 -296t243 -97q155 0 243 97t88 296v739h162v-759z" />
    <glyph glyph-name="V" unicode="V" horiz-adv-x="1208" 
d="M680 0h-152l-485 1257h170l393 -1044l395 1044h164z" />
    <glyph glyph-name="W" unicode="W" horiz-adv-x="1570" 
d="M723 1257h129l266 -999l258 999h156l-334 -1257h-147l-265 981l-268 -981h-145l-334 1257h160l258 -999z" />
    <glyph glyph-name="X" unicode="X" horiz-adv-x="1140" 
d="M1090 1257l-428 -614l446 -643h-184l-357 512l-354 -512h-178l444 639l-428 618h185l335 -489l340 489h179z" />
    <glyph glyph-name="Y" unicode="Y" horiz-adv-x="1140" 
d="M649 0h-160v518l-454 739h176l362 -593l363 593h172l-459 -739v-518z" />
    <glyph glyph-name="Z" unicode="Z" horiz-adv-x="1093" 
d="M1008 145v-145h-924v117l715 997h-705v143h905v-114l-712 -998h721z" />
    <glyph glyph-name="bracketleft" unicode="[" horiz-adv-x="641" 
d="M297 1192v-1225h297v-139h-444v1503h444v-139h-297z" />
    <glyph glyph-name="backslash" unicode="\" horiz-adv-x="681" 
d="M164 1331l508 -1503h-154l-508 1503h154z" />
    <glyph glyph-name="bracketright" unicode="]" horiz-adv-x="641" 
d="M344 -33v1225h-297v139h445v-1503h-445v139h297z" />
    <glyph glyph-name="asciicircum" unicode="^" horiz-adv-x="731" 
d="M291 1257h151l254 -397h-159l-170 262l-170 -262h-162z" />
    <glyph glyph-name="underscore" unicode="_" horiz-adv-x="751" 
d="M41 -225v139h670v-139h-670z" />
    <glyph glyph-name="grave" unicode="`" 
d="M674 1057h-142l-182 274h160z" />
    <glyph glyph-name="a" unicode="a" horiz-adv-x="921" 
d="M428 432q-80 0 -144 -40t-64 -119t63 -117q65 -43 145 -43t141 30q60 35 80 82v94q-20 47 -80 82q-61 31 -141 31zM797 0h-148v68q-25 -29 -93 -57t-146 -27q-143 0 -242 79q-96 80 -96 208t100 208q102 80 248 80q66 0 131 -21t98 -53v115q0 86 -51 141q-57 53 -149 54
q-143 0 -187 -125h-151q23 114 117 186t239 72q146 0 238 -86t92 -236v-606z" />
    <glyph glyph-name="b" unicode="b" horiz-adv-x="1028" 
d="M524 121q127 0 202 93q75 92 75 240t-75 241t-202 93q-70 0 -135 -38q-67 -45 -98 -111v-369q31 -66 98 -110q66 -39 135 -39zM291 0h-156v1331h156v-528q39 55 109 90t147 35q195 0 303 -137t106 -337q0 -200 -107 -336t-302 -136q-76 0 -150 34q-67 35 -106 90v-106z
" />
    <glyph glyph-name="c" unicode="c" horiz-adv-x="913" 
d="M72 455q0 209 114 341t299 132q152 0 244 -80q96 -78 121 -213h-158q-14 74 -69 116t-138 42q-119 0 -186 -95q-72 -92 -72 -244t72 -243q68 -94 186 -94q81 0 137 42t70 115h158q-25 -135 -121 -213q-92 -80 -244 -79q-185 0 -299 132t-114 341z" />
    <glyph glyph-name="d" unicode="d" horiz-adv-x="1028" 
d="M227 455q0 -147 75 -241t202 -93q70 0 135 39q67 44 98 110v369q-31 66 -98 111q-66 39 -135 38q-127 0 -202 -93t-75 -240zM737 0v106q-39 -55 -109 -90t-147 -34q-195 0 -303 136t-106 336q0 200 107 337t302 137q76 0 147 -35t109 -90v528h156v-1331h-156z" />
    <glyph glyph-name="e" unicode="e" horiz-adv-x="935" 
d="M489 797q-104 0 -175 -68t-85 -186h484q-4 111 -62 183t-162 71zM483 928q181 0 283 -121t102 -326v-55h-643q2 -143 74 -229q74 -84 190 -84q84 -1 144 41t78 118h145q-25 -133 -121 -212t-246 -78q-186 0 -302 130q-115 130 -115 338t114 345q115 133 297 133z" />
    <glyph glyph-name="f" unicode="f" horiz-adv-x="591" 
d="M346 1049v-140h205v-131h-205v-778h-151v778h-154v131h154v152q0 133 77 211q78 78 201 78q72 -1 119 -21v-139q-40 24 -102 24t-105 -43q-39 -45 -39 -122z" />
    <glyph glyph-name="g" unicode="g" horiz-adv-x="1026" 
d="M229 468q0 -142 73 -232t213 -90t218 141v362q-78 141 -218 141t-213 -90t-73 -232zM733 61v68q-37 -51 -107 -87t-147 -36q-193 0 -301 136t-106 326q0 190 108 327q109 133 299 133q78 0 148 -34t106 -87v102h156v-837q0 -215 -111 -330q-115 -111 -286 -111t-275 80
q-102 82 -123 221h152q41 -170 237 -170q250 0 250 299z" />
    <glyph glyph-name="h" unicode="h" horiz-adv-x="1001" 
d="M137 0v1331h154v-536q43 59 115 94q66 39 153 39q152 0 236 -90t84 -242v-596h-156v571q0 99 -51 157q-50 58 -140 58t-153 -47t-88 -123v-616h-154z" />
    <glyph glyph-name="i" unicode="i" horiz-adv-x="428" 
d="M313 1184q1 -41 -29 -70t-71 -29t-70 29t-28 70q1 42 29 70t69 28t71 -28t29 -70zM291 909v-909h-154v909h154z" />
    <glyph glyph-name="j" unicode="j" horiz-adv-x="423" 
d="M313 1184q1 -41 -29 -70t-71 -29t-70 29t-28 70q1 42 29 70t69 28t71 -28t29 -70zM291 909v-1013q0 -127 -69 -195t-195 -68q-47 0 -66 9v131q37 -6 53 -6q123 0 123 139v1003h154z" />
    <glyph glyph-name="k" unicode="k" horiz-adv-x="950" 
d="M291 0h-154v1331h154v-825l416 403h202l-409 -393l424 -516h-189l-346 420l-98 -94v-326z" />
    <glyph glyph-name="l" unicode="l" horiz-adv-x="428" 
d="M291 1331v-1331h-154v1331h154z" />
    <glyph glyph-name="m" unicode="m" horiz-adv-x="1468" 
d="M1346 602v-602h-156v578q0 98 -43 154t-121 56t-133 -44t-76 -117v-627h-153v578q0 98 -43 154t-121 56t-133 -44t-76 -117v-627h-154v909h154v-106q77 125 247 125t244 -146q102 145 277 146q137 0 212 -88t75 -238z" />
    <glyph glyph-name="n" unicode="n" horiz-adv-x="1001" 
d="M137 0v909h154v-114q43 59 115 94q66 39 153 39q152 0 236 -90t84 -242v-596h-156v571q0 99 -51 157q-50 58 -140 58t-153 -47t-88 -123v-616h-154z" />
    <glyph glyph-name="o" unicode="o" horiz-adv-x="978" 
d="M752 455q0 154 -72 245q-68 92 -191 92t-190 -92q-72 -92 -72 -246t70 -245q71 -92 193 -92t190 92q72 92 72 246zM907 455q0 -211 -116 -340q-113 -133 -301 -133t-302 133q-117 129 -116 340q0 211 116 340q113 133 301 133t302 -133q116 -129 116 -340z" />
    <glyph glyph-name="p" unicode="p" horiz-adv-x="1028" 
d="M524 121q127 0 202 93q75 92 75 240t-75 241t-202 93q-70 0 -135 -38q-67 -45 -98 -111v-369q31 -66 98 -110q66 -39 135 -39zM547 -18q-159 0 -256 124v-454h-154v1257h154v-106q98 125 256 125q195 0 303 -137t106 -336q0 -199 -107 -336t-302 -137z" />
    <glyph glyph-name="q" unicode="q" horiz-adv-x="1028" 
d="M227 455q0 -147 75 -241t202 -93q70 0 135 39q67 44 98 110v369q-31 66 -98 111q-66 39 -135 38q-127 0 -202 -93t-75 -240zM481 928q158 0 256 -125v106h154v-1257h-154v454q-99 -126 -256 -124q-195 0 -303 137t-106 336q0 199 107 336t302 137z" />
    <glyph glyph-name="r" unicode="r" horiz-adv-x="657" 
d="M291 0h-154v909h154v-118q31 57 90 97t127 40t96 -15v-157q-36 24 -106 24t-128 -46t-79 -124v-610z" />
    <glyph glyph-name="s" unicode="s" horiz-adv-x="847" 
d="M436 111q80 0 135 32q51 37 52 103q0 94 -136 127l-180 47q-219 55 -219 239q0 119 91 194t237 75t235 -68q90 -68 115 -190h-154q-39 129 -200 129q-68 0 -123 -33q-51 -37 -51 -90t28 -79t99 -44l176 -43q231 -61 231 -254q0 -127 -95 -201q-95 -73 -244 -73t-249 70
t-123 198h160q43 -139 215 -139z" />
    <glyph glyph-name="t" unicode="t" horiz-adv-x="649" 
d="M180 229v549h-147v131h147v240h154v-240h219v-131h-219v-532q0 -127 121 -127q63 0 118 37v-144q-59 -30 -159 -30t-166 63q-68 61 -68 184z" />
    <glyph glyph-name="u" unicode="u" horiz-adv-x="997" 
d="M862 909v-909h-155v115q-39 -57 -110 -95t-155 -38q-154 0 -233 90q-84 86 -84 241v596h156v-571q0 -98 49 -156t137 -59q88 0 151 46t89 124v616h155z" />
    <glyph glyph-name="v" unicode="v" horiz-adv-x="931" 
d="M541 0h-152l-352 909h166l266 -714l264 714h162z" />
    <glyph glyph-name="w" unicode="w" horiz-adv-x="1288" 
d="M715 909l186 -694l201 694h149l-268 -909h-149l-189 690l-190 -690h-150l-268 909h153l201 -694l187 694h137z" />
    <glyph glyph-name="x" unicode="x" horiz-adv-x="919" 
d="M864 909l-319 -438l338 -471h-174l-252 354l-254 -354h-166l336 465l-318 444h176l230 -325l235 325h168z" />
    <glyph glyph-name="y" unicode="y" horiz-adv-x="931" 
d="M406 -348h-152l137 342l-354 915h166l268 -716l264 716h160z" />
    <glyph glyph-name="z" unicode="z" horiz-adv-x="888" 
d="M799 131v-131h-715v100l510 678h-494v131h691v-100l-506 -678h514z" />
    <glyph glyph-name="braceleft" unicode="{" horiz-adv-x="694" 
d="M358 422v-379q0 -76 74 -76h215v-139h-213q-100 0 -164 64t-63 165v375q0 76 -72 76h-94v143h94q72 0 72 76v375q0 102 63 166t164 63h213v-139h-215q-74 0 -74 -76v-379q0 -106 -88 -157q88 -52 88 -158z" />
    <glyph glyph-name="bar" unicode="|" horiz-adv-x="448" 
d="M150 -172v1503h149v-1503h-149z" />
    <glyph glyph-name="braceright" unicode="}" horiz-adv-x="694" 
d="M336 43v379q0 106 88 158q-88 51 -88 157v379q0 76 -74 76h-215v139h213q100 0 164 -63t63 -166v-375q0 -76 72 -76h94v-143h-94q-72 0 -72 -76v-375q0 -102 -63 -163q-63 -66 -164 -66h-213v139h215q74 0 74 76z" />
    <glyph glyph-name="asciitilde" unicode="~" horiz-adv-x="856" 
d="M645 686h129q0 -127 -53 -194q-49 -70 -146 -70q-49 0 -104 33q-74 51 -94 69q-45 33 -78 33q-88 0 -88 -127h-129q0 125 53 193q49 70 146 69q67 0 151 -68t125 -67q88 0 88 129z" />
    <glyph glyph-name="uni00A0" unicode="&#xa0;" horiz-adv-x="452" 
 />
    <glyph glyph-name="exclamdown" unicode="&#xa1;" horiz-adv-x="428" 
d="M117 -197l35 863h110l37 -863h-182zM98 961q0 47 32 79t78 31q46 0 79 -31q31 -34 31 -80t-32 -79t-78 -33t-78 33t-32 80z" />
    <glyph glyph-name="cent" unicode="&#xa2;" horiz-adv-x="913" 
d="M72 475q0 193 96 321t256 148v178h141v-180q119 -20 193 -98q72 -82 90 -199h-154q-16 78 -69 123t-140 45q-119 0 -186 -94q-72 -92 -72 -244t72 -244q68 -94 186 -94q86 0 140 45q53 45 69 123h154q-14 -117 -89 -197t-194 -100v-186h-141v184q-160 20 -256 148
t-96 321z" />
    <glyph glyph-name="sterling" unicode="&#xa3;" horiz-adv-x="999" 
d="M383 870v-186h315v-127h-315v-238q0 -121 -47 -186h606v-133h-879v133h125q45 78 45 186v238h-170v127h170v186q-1 178 101 292t256 114t246 -80q90 -84 110 -217h-149q-27 162 -197 162q-100 0 -158 -72t-59 -199z" />
    <glyph glyph-name="yen" unicode="&#xa5;" horiz-adv-x="1095" 
d="M145 541v121h261l-355 595h172l328 -563l326 563h165l-354 -595h260v-121h-321v-144h321v-123h-321v-274h-160v274h-322v123h322v144h-322z" />
    <glyph glyph-name="section" unicode="&#xa7;" horiz-adv-x="931" 
d="M739 410q0 32 -21 64q-22 32 -44 50t-70 49l-319 218q-92 -31 -92 -132q0 -31 20 -65q25 -33 45 -51q35 -24 68 -47l319 -215q94 27 94 129zM776 55q0 -123 -88 -190q-86 -72 -234 -72t-237 73q-90 73 -113 202h150q37 -147 205 -148q78 0 121 35q47 31 47 87t-25 87
q-27 31 -88 70l-260 174q-98 63 -156 129q-51 68 -51 148t37 140q37 62 102 97q-33 51 -32 127q0 122 89 192t235 70t236 -73q91 -73 113 -202h-151q-37 147 -203 148q-78 0 -121 -35q-49 -31 -49 -87t25 -85t90 -72l258 -172q96 -61 153 -129q53 -69 53 -149t-36 -142
q-37 -62 -103 -98q33 -53 33 -125z" />
    <glyph glyph-name="dieresis" unicode="&#xa8;" 
d="M561 1171q0 41 27 68q26 27 68 27t65 -29q29 -23 29 -63t-29 -72q-31 -27 -67 -27t-66 27q-27 28 -27 69zM272 1172q0 38 28 66t70 28t64 -29q29 -23 29 -65t-28 -70q-27 -28 -65 -27q-38 0 -69 27q-29 32 -29 70z" />
    <glyph glyph-name="copyright" unicode="&#xa9;" horiz-adv-x="1445" 
d="M360 633q0 182 104 295q104 112 252 112t231 -70t108 -190h-152q-41 121 -172 121q-99 0 -159 -74q-60 -75 -60 -195t60 -194t159 -73q131 0 172 120h152q-25 -115 -109 -190q-86 -70 -232 -70t-250 113t-104 295zM1290 629q0 243 -164 405t-404 162t-403 -163t-163 -405
t163 -405q164 -162 404 -162q239 0 403 163t164 405zM1370 629q0 -279 -187 -463t-459 -184t-460 184t-188 463t187 463t459 184t460 -184t188 -463z" />
    <glyph glyph-name="ordfeminine" unicode="&#xaa;" horiz-adv-x="598" 
d="M160 840q0 -44 37 -66q33 -24 80 -24t83 19t48 44v55q-12 25 -48 44q-36 20 -82 20t-82 -24t-36 -68zM541 657h-133v43q-48 -53 -150 -53t-168 51q-63 54 -63 140q1 86 67 140t158 54t156 -47v68q0 49 -30 80t-85 30q-86 0 -109 -71h-131q13 82 79 134t174 52t169 -61
q66 -57 66 -166v-394z" />
    <glyph glyph-name="guillemotleft" unicode="&#xab;" horiz-adv-x="731" 
d="M680 152h-143l-189 303l189 303h143l-188 -303zM383 152h-143l-189 303l189 303h143l-188 -303z" />
    <glyph glyph-name="registered" unicode="&#xae;" horiz-adv-x="843" 
d="M506 978q0 22 -17 34q-14 16 -45 16h-82v-108h82q27 0 45 14q17 22 17 44zM362 848v-139h-86v393h173q63 0 102 -33q37 -37 37 -96q0 -96 -86 -117l100 -147h-96l-92 139h-52zM423 588q128 0 217 89t89 227t-90 222q-84 90 -216 90t-220 -90q-90 -86 -90 -221t90 -229
q92 -88 220 -88zM793 901q0 -162 -109 -266q-106 -109 -262 -109t-262 109q-109 104 -109 266t109 266q106 109 262 109t262 -109q109 -104 109 -266z" />
    <glyph glyph-name="macron" unicode="&#xaf;" 
d="M293 1085v125h436v-125h-436z" />
    <glyph glyph-name="degree" unicode="&#xb0;" horiz-adv-x="688" 
d="M596 1022q0 -106 -74 -180t-178 -74t-178 74t-74 180t74 180t178 74t178 -74t74 -180zM344 1163q-57 0 -98 -43t-41 -99t41 -97t98 -41t98 41t41 97t-41 99t-98 43z" />
    <glyph glyph-name="plusminus" unicode="&#xb1;" horiz-adv-x="1114" 
d="M160 180v127h796v-127h-796zM494 1061h127v-264h335v-127h-335v-264h-127v264h-334v127h334v264z" />
    <glyph glyph-name="uni00B2" unicode="&#xb2;" horiz-adv-x="565" 
d="M377 1067q0 37 -27 61q-28 24 -70 25q-42 0 -70 -31t-30 -75h-135q8 94 74 159q68 62 167 62t158 -54t60 -147q0 -39 -23 -84t-47 -71t-61 -68l-152 -156h289v-110h-463v88l229 239q61 65 81 95t20 67z" />
    <glyph glyph-name="uni00B3" unicode="&#xb3;" horiz-adv-x="575" 
d="M233 874v99h50q49 1 77 25t27 65q0 41 -27 72q-30 25 -72 25t-75 -30q-31 -31 -33 -71h-129q12 94 74 149q59 60 161 60t160 -56q61 -53 62 -141q0 -49 -25 -92q-31 -41 -67 -55q102 -38 102 -140t-63 -157q-59 -59 -168 -59t-173 58t-73 156h133q14 -104 115 -104
q51 0 80 28t29 72t-30 71q-30 26 -81 25h-54z" />
    <glyph glyph-name="acute" unicode="&#xb4;" 
d="M492 1057h-142l164 274h160z" />
    <glyph glyph-name="paragraph" unicode="&#xb6;" horiz-adv-x="1001" 
d="M451 -184v800q-168 0 -295 82q-125 84 -125 240t125 238q127 82 295 81h129v-1441h-129zM723 -184v1441h129v-1441h-129z" />
    <glyph glyph-name="periodcentered" unicode="&#xb7;" horiz-adv-x="360" 
d="M70 537q0 47 32 79t77 33q46 0 79 -33q31 -34 31 -80t-32 -78t-78 -32q-45 0 -77 32t-32 79z" />
    <glyph glyph-name="cedilla" unicode="&#xb8;" 
d="M512 -375h-145l135 271h151z" />
    <glyph glyph-name="uni00B9" unicode="&#xb9;" horiz-adv-x="452" 
d="M348 1260v-682h-129v530l-180 -90v131l223 111h86z" />
    <glyph glyph-name="ordmasculine" unicode="&#xba;" horiz-adv-x="634" 
d="M317 1159q-69 0 -109 -56t-40 -143q0 -88 41 -142t109 -54t108 54q41 54 41 142q0 87 -41 143t-109 56zM606 961q0 -141 -80 -228q-78 -90 -208 -90t-211 88q-81 87 -81 229t82 230q80 88 210 88t208 -90q80 -86 80 -227z" />
    <glyph glyph-name="guillemotright" unicode="&#xbb;" horiz-adv-x="731" 
d="M195 152h-144l189 303l-189 303h144l188 -303zM492 152h-144l189 303l-189 303h144l188 -303z" />
    <glyph glyph-name="onequarter" unicode="&#xbc;" horiz-adv-x="1366" 
d="M1044 250v137h115v-137h107v-109h-107v-141h-115v141h-307v97l234 444h127l-219 -432h165zM391 1260v-682h-127v530l-180 -90v131l221 111h86zM1165 1257l-878 -1257h-137l878 1257h137z" />
    <glyph glyph-name="onehalf" unicode="&#xbd;" horiz-adv-x="1396" 
d="M1147 487q0 39 -25 64q-30 25 -72 25t-67 -31q-29 -29 -33 -76h-133q9 95 73 159t164 64t162 -55q60 -55 60 -148q0 -39 -22 -83t-42 -64q-20 -22 -67 -76l-152 -155h289v-111h-463v88l228 240q61 63 75 90q25 30 25 69zM391 1260v-682h-127v530l-180 -90v131l221 111h86
zM1165 1257l-878 -1257h-137l878 1257h137z" />
    <glyph glyph-name="threequarters" unicode="&#xbe;" horiz-adv-x="1445" 
d="M1124 250v137h115v-137h107v-109h-107v-141h-115v141h-307v97l234 444h127l-220 -432h166zM287 872v101h49q45 1 75 25q29 24 29 65t-28 67t-70 27q-43 0 -76 -29q-31 -31 -33 -71h-129q12 94 74 152q62 59 164 59q100 0 158 -56q61 -53 61 -141q0 -51 -24 -92
q-29 -43 -68 -57q45 -14 76 -56q27 -43 26 -92q0 -90 -63 -149q-62 -59 -166 -59t-174 57q-66 66 -74 159h133q14 -106 115 -106q51 0 80 27t29 71t-31 72q-31 27 -80 26h-53zM1245 1257l-878 -1257h-138l879 1257h137z" />
    <glyph glyph-name="questiondown" unicode="&#xbf;" horiz-adv-x="884" 
d="M49 137q0 33 4 47q1 16 11 44t13 36t6 17t23 36l25 37q3 12 21 30t28 30q10 14 13 14l32 37l33 33q86 92 88 168h152q-2 -118 -88 -212q-32 -36 -78 -84q-44 -48 -66 -73q-60 -73 -61 -163q0 -89 60 -147q60 -59 168 -59t171 69t74 183h166q-18 -180 -131 -288t-288 -107
q-175 0 -273 96q-103 92 -103 256zM537 961q0 -47 -32 -80t-78 -33t-79 33q-31 33 -31 80t31 79q33 31 79 31q46 1 78 -31t32 -79z" />
    <glyph glyph-name="Agrave" unicode="&#xc0;" horiz-adv-x="1220" 
d="M690 1368h-153l-189 240h178zM608 1057l-205 -537h410zM535 1257h151l492 -1257h-164l-146 379h-518l-143 -379h-164z" />
    <glyph glyph-name="Aacute" unicode="&#xc1;" horiz-adv-x="1220" 
d="M682 1368h-156l164 240h178zM608 1057l-205 -537h410zM535 1257h151l492 -1257h-164l-146 379h-518l-143 -379h-164z" />
    <glyph glyph-name="Acircumflex" unicode="&#xc2;" horiz-adv-x="1220" 
d="M682 1620l188 -250h-139l-121 146l-121 -146h-139l189 250h143zM608 1057l-205 -537h410zM535 1257h151l492 -1257h-164l-146 379h-518l-143 -379h-164z" />
    <glyph glyph-name="Atilde" unicode="&#xc3;" horiz-adv-x="1220" 
d="M885 1606q0 -117 -41 -179q-37 -66 -115 -65q-53 0 -123 57t-102 58q-70 0 -70 -109h-100q0 111 39 178q43 66 107 66t132 -58t105 -57q65 0 69 109h99zM608 1057l-205 -537h410zM535 1257h151l492 -1257h-164l-146 379h-518l-143 -379h-164z" />
    <glyph glyph-name="Adieresis" unicode="&#xc4;" horiz-adv-x="1220" 
d="M662 1479q0 41 26 67t67 27q39 0 67 -28q28 -29 28 -67t-28 -66t-68 -28t-66 27t-26 68zM373 1479q0 43 28 65q23 29 65 29t70 -28q28 -29 28 -67t-28 -66t-70 -28t-65 29q-28 23 -28 66zM608 1057l-205 -537h410zM535 1257h151l492 -1257h-164l-146 379h-518l-143 -379
h-164z" />
    <glyph glyph-name="Aring" unicode="&#xc5;" horiz-adv-x="1220" 
d="M702 1504q0 40 -26 67t-66 27t-66 -28q-26 -26 -26 -66t27 -66t65 -27q38 1 66 27q26 26 26 66zM788 1504q0 -75 -51 -126t-127 -51t-127 51t-51 126t51 126t127 51t127 -51t51 -126zM608 1057l-205 -537h410zM535 1257h151l492 -1257h-164l-146 379h-518l-143 -379h-164
z" />
    <glyph glyph-name="AE" unicode="&#xc6;" horiz-adv-x="1765" 
d="M895 520v606l-369 -606h369zM1661 1257v-143h-608v-397h549v-144h-549v-428h608v-145h-766v379h-455l-229 -379h-168l756 1257h862z" />
    <glyph glyph-name="Ccedilla" unicode="&#xc7;" horiz-adv-x="1200" 
d="M588 -375h-146l136 271h151zM76 629q0 289 161 468t402 179q195 0 323 -104t166 -283h-159q-86 242 -330 241q-182 0 -291 -139q-110 -135 -110 -360t110 -365q111 -139 291 -139q246 0 330 244h159q-39 -180 -165 -285q-129 -104 -324 -104q-243 0 -403 179t-160 468z
" />
    <glyph glyph-name="Egrave" unicode="&#xc8;" horiz-adv-x="1054" 
d="M150 1257h800v-143h-641v-397h582v-144h-582v-428h641v-145h-800v1257zM641 1368h-154l-188 240h178z" />
    <glyph glyph-name="Eacute" unicode="&#xc9;" horiz-adv-x="1054" 
d="M150 1257h800v-143h-641v-397h582v-144h-582v-428h641v-145h-800v1257zM625 1368h-156l164 240h178z" />
    <glyph glyph-name="Ecircumflex" unicode="&#xca;" horiz-adv-x="1054" 
d="M631 1620l188 -250h-139l-121 146l-121 -146h-139l188 250h144zM150 1257h800v-143h-641v-397h582v-144h-582v-428h641v-145h-800v1257z" />
    <glyph glyph-name="Edieresis" unicode="&#xcb;" horiz-adv-x="1054" 
d="M150 1257h800v-143h-641v-397h582v-144h-582v-428h641v-145h-800v1257zM610 1479q0 41 27 65q27 29 69 29t64 -29q29 -24 29 -66t-29 -65q-23 -29 -65 -29t-68 29q-27 25 -27 66zM322 1479q0 39 28 67t69 27q42 0 64 -29q29 -24 29 -66t-29 -65q-23 -29 -65 -29t-68 28
q-28 28 -28 67z" />
    <glyph glyph-name="Igrave" unicode="&#xcc;" horiz-adv-x="460" 
d="M313 1368h-153l-189 240h179zM311 1257v-1257h-161v1257h161z" />
    <glyph glyph-name="Iacute" unicode="&#xcd;" horiz-adv-x="460" 
d="M295 1368h-156l164 240h178zM311 1257v-1257h-161v1257h161z" />
    <glyph glyph-name="Icircumflex" unicode="&#xce;" horiz-adv-x="460" 
d="M301 1620l188 -250h-139l-121 146l-120 -146h-140l189 250h143zM311 1257v-1257h-161v1257h161z" />
    <glyph glyph-name="Idieresis" unicode="&#xcf;" horiz-adv-x="460" 
d="M281 1479q1 41 27 67t66 27q40 0 68 -28q28 -29 27 -67q0 -38 -28 -66q-27 -28 -67 -28t-66 27t-27 68zM-8 1479q0 43 28 65q23 29 65 29t70 -28q27 -29 27 -67t-28 -66t-69 -28q-42 0 -65 29q-28 23 -28 66zM311 1257v-1257h-161v1257h161z" />
    <glyph glyph-name="Eth" unicode="&#xd0;" horiz-adv-x="1269" 
d="M342 145h240q215 0 331 129q121 128 121 352t-120 356t-332 132h-240v-395h252v-137h-252v-437zM66 582v137h114v538h404q276 0 443 -170q167 -171 167 -459t-167 -458t-443 -170h-404v582h-114z" />
    <glyph glyph-name="Ntilde" unicode="&#xd1;" horiz-adv-x="1275" 
d="M1126 1257v-1257h-118l-703 999v-999h-155v1257h153l670 -956v956h153zM913 1606q0 -117 -41 -179q-37 -66 -114 -65q-53 0 -123 57t-103 58q-70 0 -69 -109h-101q0 111 39 178q43 66 107 66t133 -58q68 -58 104 -57q66 0 70 109h98z" />
    <glyph glyph-name="Ograve" unicode="&#xd2;" horiz-adv-x="1288" 
d="M1051 629q0 223 -113 362q-115 139 -294 139t-293 -139q-113 -139 -113 -362t112 -363q115 -139 294 -139t294 139q113 140 113 363zM1212 629q0 -287 -159 -465q-158 -182 -409 -182t-408 182q-160 178 -160 465t160 465q158 182 408 182t409 -182q159 -178 159 -465z
M727 1368h-154l-188 240h178z" />
    <glyph glyph-name="Oacute" unicode="&#xd3;" horiz-adv-x="1288" 
d="M1051 629q0 223 -113 362q-115 139 -294 139t-293 -139q-113 -139 -113 -362t112 -363q115 -139 294 -139t294 139q113 140 113 363zM1212 629q0 -287 -159 -465q-158 -182 -409 -182t-408 182q-160 178 -160 465t160 465q158 182 408 182t409 -182q159 -178 159 -465z
M709 1368h-156l164 240h178z" />
    <glyph glyph-name="Ocircumflex" unicode="&#xd4;" horiz-adv-x="1288" 
d="M715 1620l188 -250h-139l-121 146l-121 -146h-139l188 250h144zM1051 629q0 223 -113 362q-115 139 -294 139t-293 -139q-113 -139 -113 -362t112 -363q115 -139 294 -139t294 139q113 140 113 363zM1212 629q0 -287 -159 -465q-158 -182 -409 -182t-408 182
q-160 178 -160 465t160 465q158 182 408 182t409 -182q159 -178 159 -465z" />
    <glyph glyph-name="Otilde" unicode="&#xd5;" horiz-adv-x="1288" 
d="M1051 629q0 223 -113 362q-115 139 -294 139t-293 -139q-113 -139 -113 -362t112 -363q115 -139 294 -139t294 139q113 140 113 363zM1212 629q0 -287 -159 -465q-158 -182 -409 -182t-408 182q-160 178 -160 465t160 465q158 182 408 182t409 -182q159 -178 159 -465z
M920 1606q0 -111 -39 -179q-43 -65 -107 -65t-133 57q-70 57 -102 58q-70 0 -70 -109h-100q0 117 41 178q37 66 104 66t133 -58q70 -57 105 -57q65 0 69 109h99z" />
    <glyph glyph-name="Odieresis" unicode="&#xd6;" horiz-adv-x="1288" 
d="M1051 629q0 223 -113 362q-115 139 -294 139t-293 -139q-113 -139 -113 -362t112 -363q115 -139 294 -139t294 139q113 140 113 363zM1212 629q0 -287 -159 -465q-158 -182 -409 -182t-408 182q-160 178 -160 465t160 465q158 182 408 182t409 -182q159 -178 159 -465z
M694 1479q0 41 27 65q27 29 67 29t67 -28q28 -29 28 -67t-28 -66t-68 -28t-66 29q-27 25 -27 66zM406 1479q0 43 28 65q23 29 65 29q41 0 69 -28q28 -29 28 -67t-28 -66t-70 -28t-64 29q-28 23 -28 66z" />
    <glyph glyph-name="multiply" unicode="&#xd7;" horiz-adv-x="962" 
d="M395 604l-250 248l88 86l246 -250l250 250l88 -86l-250 -248l250 -250l-88 -88l-250 250l-246 -250l-88 88z" />
    <glyph glyph-name="Oslash" unicode="&#xd8;" horiz-adv-x="1308" 
d="M1061 612q0 206 -78 334l-577 -731q96 -88 262 -88t280 139q113 140 113 346zM641 1130q-165 0 -279 -139t-114 -349t80 -337l581 731q-102 94 -268 94zM86 637q0 279 160 457q158 182 407 182q199 0 348 -123l97 123l94 -68l-111 -137q141 -173 141 -451t-159 -456
q-158 -182 -410 -182q-199 0 -340 116l-102 -129l-96 68l114 145q-143 176 -143 455z" />
    <glyph glyph-name="Ugrave" unicode="&#xd9;" horiz-adv-x="1243" 
d="M1114 498q0 -252 -136 -384t-356 -132t-356 132t-137 386v757h160v-739q0 -199 89 -296t243 -97q155 0 243 97t88 296v739h162v-759zM705 1368h-154l-189 240h179z" />
    <glyph glyph-name="Uacute" unicode="&#xda;" horiz-adv-x="1243" 
d="M1114 498q0 -252 -136 -384t-356 -132t-356 132t-137 386v757h160v-739q0 -199 89 -296t243 -97q155 0 243 97t88 296v739h162v-759zM686 1368h-156l164 240h178z" />
    <glyph glyph-name="Ucircumflex" unicode="&#xdb;" horiz-adv-x="1243" 
d="M692 1620l189 -250h-140l-120 146l-121 -146h-140l189 250h143zM1114 498q0 -252 -136 -384t-356 -132t-356 132t-137 386v757h160v-739q0 -199 89 -296t243 -97q155 0 243 97t88 296v739h162v-759z" />
    <glyph glyph-name="Udieresis" unicode="&#xdc;" horiz-adv-x="1243" 
d="M1114 498q0 -252 -136 -384t-356 -132t-356 132t-137 386v757h160v-739q0 -199 89 -296t243 -97q155 0 243 97t88 296v739h162v-759zM672 1479q0 41 26 67t69 27q42 0 64 -29q29 -24 29 -66t-29 -65q-23 -29 -65 -29t-68 27t-26 68zM383 1479q0 39 28 67q27 28 69 27
q42 0 65 -29q29 -24 29 -66t-29 -65q-23 -29 -65 -29t-70 28t-27 67z" />
    <glyph glyph-name="Yacute" unicode="&#xdd;" horiz-adv-x="1140" 
d="M637 1368h-156l164 240h178zM649 0h-160v518l-454 739h176l362 -593l363 593h172l-459 -739v-518z" />
    <glyph glyph-name="Thorn" unicode="&#xde;" horiz-adv-x="1099" 
d="M874 645q0 109 -66 172t-192 64h-305v-471h305q126 0 192 63t66 172zM621 268h-310v-268h-161v1257h161v-235h310q193 0 305 -96q108 -98 108 -280t-110 -281q-113 -97 -303 -97z" />
    <glyph glyph-name="germandbls" unicode="&#xdf;" horiz-adv-x="1044" 
d="M971 385q1 -185 -107 -291t-286 -106q-96 0 -177 35v141q57 -37 171 -37t183 71q69 70 69 200t-85 204q-84 74 -231 74h-86v135h86q100 0 158 56q58 55 59 147q0 92 -56 147t-161 55t-160 -73q-59 -72 -59 -195v-948h-152v948q0 178 101 291q104 111 273 111t265 -92
t96 -232q0 -104 -49 -174q-47 -73 -123 -100q117 -29 194 -127t77 -240z" />
    <glyph glyph-name="agrave" unicode="&#xe0;" horiz-adv-x="921" 
d="M555 1057h-141l-183 274h160zM428 432q-80 0 -144 -40t-64 -119t63 -117q65 -43 145 -43t141 30q60 35 80 82v94q-20 47 -80 82q-61 31 -141 31zM797 0h-148v68q-25 -29 -93 -57t-146 -27q-143 0 -242 79q-96 80 -96 208t100 208q102 80 248 80q66 0 131 -21t98 -53v115
q0 86 -51 141q-57 53 -149 54q-143 0 -187 -125h-151q23 114 117 186t239 72q146 0 238 -86t92 -236v-606z" />
    <glyph glyph-name="aacute" unicode="&#xe1;" horiz-adv-x="921" 
d="M532 1057h-141l164 274h160zM428 432q-80 0 -144 -40t-64 -119t63 -117q65 -43 145 -43t141 30q60 35 80 82v94q-20 47 -80 82q-61 31 -141 31zM797 0h-148v68q-25 -29 -93 -57t-146 -27q-143 0 -242 79q-96 80 -96 208t100 208q102 80 248 80q66 0 131 -21t98 -53v115
q0 86 -51 141q-57 53 -149 54q-143 0 -187 -125h-151q23 114 117 186t239 72q146 0 238 -86t92 -236v-606z" />
    <glyph glyph-name="acircumflex" unicode="&#xe2;" horiz-adv-x="921" 
d="M428 432q-80 0 -144 -40t-64 -119t63 -117q65 -43 145 -43t141 30q60 35 80 82v94q-20 47 -80 82q-61 31 -141 31zM797 0h-148v68q-25 -29 -93 -57t-146 -27q-143 0 -242 79q-96 80 -96 208t100 208q102 80 248 80q66 0 131 -21t98 -53v115q0 86 -51 141q-57 53 -149 54
q-143 0 -187 -125h-151q23 114 117 186t239 72q146 0 238 -86t92 -236v-606zM541 1321l188 -279h-133l-127 181l-127 -181h-133l188 279h144z" />
    <glyph glyph-name="atilde" unicode="&#xe3;" horiz-adv-x="921" 
d="M737 1296q0 -115 -41 -176q-37 -66 -114 -65q-49 0 -117 59t-96 60q-70 0 -70 -113h-98q0 115 41 176q37 66 114 66q49 1 117 -59t96 -60q68 -1 70 112h98zM428 432q-80 0 -144 -40t-64 -119t63 -117q65 -43 145 -43t141 30q60 35 80 82v94q-20 47 -80 82q-61 31 -141 31
zM797 0h-148v68q-25 -29 -93 -57t-146 -27q-143 0 -242 79q-96 80 -96 208t100 208q102 80 248 80q66 0 131 -21t98 -53v115q0 86 -51 141q-57 53 -149 54q-143 0 -187 -125h-151q23 114 117 186t239 72q146 0 238 -86t92 -236v-606z" />
    <glyph glyph-name="adieresis" unicode="&#xe4;" horiz-adv-x="921" 
d="M428 432q-80 0 -144 -40t-64 -119t63 -117q65 -43 145 -43t141 30q60 35 80 82v94q-20 47 -80 82q-61 31 -141 31zM797 0h-148v68q-25 -29 -93 -57t-146 -27q-143 0 -242 79q-96 80 -96 208t100 208q102 80 248 80q66 0 131 -21t98 -53v115q0 86 -51 141q-57 53 -149 54
q-143 0 -187 -125h-151q23 114 117 186t239 72q146 0 238 -86t92 -236v-606zM520 1171q0 41 27 68t69 27t64 -29q29 -23 29 -63t-29 -72q-31 -27 -67 -27t-66 27q-27 28 -27 69zM231 1172q0 38 28 66t70 28t64 -29q29 -23 29 -65t-28 -70t-66 -27q-38 0 -68 27
q-29 32 -29 70z" />
    <glyph glyph-name="aring" unicode="&#xe5;" horiz-adv-x="921" 
d="M557 1188q0 40 -27 66q-28 26 -66 26t-65 -27t-27 -65t28 -66q26 -26 65 -26t65 26t27 66zM643 1188q0 -76 -51 -126t-127 -50t-127 50t-51 126t51 126t127 50t127 -50t51 -126zM428 432q-80 0 -144 -40t-64 -119t63 -117q65 -43 145 -43t141 30q60 35 80 82v94
q-20 47 -80 82q-61 31 -141 31zM797 0h-148v68q-25 -29 -93 -57t-146 -27q-143 0 -242 79q-96 80 -96 208t100 208q102 80 248 80q66 0 131 -21t98 -53v115q0 86 -51 141q-57 53 -149 54q-143 0 -187 -125h-151q23 114 117 186t239 72q146 0 238 -86t92 -236v-606z" />
    <glyph glyph-name="ae" unicode="&#xe6;" horiz-adv-x="1497" 
d="M1050 797q-104 0 -176 -68t-86 -186h486q-4 109 -62 182q-59 72 -162 72zM395 -16q-141 0 -231 77q-94 74 -94 203t98 205t252 76h225v55q0 90 -52 142t-147 53q-147 0 -190 -125h-147q23 118 117 188t223 70q221 0 294 -166q113 166 298 166t287 -121t102 -326v-55h-646
q4 -147 77 -230t173 -83q200 0 238 159h145q-25 -135 -123 -211q-94 -80 -245 -79q-217 0 -330 172q-127 -170 -324 -170zM430 424q-92 0 -153 -39t-61 -116t56 -117t139 -39q83 0 146 45q61 45 88 121v145h-215z" />
    <glyph glyph-name="ccedilla" unicode="&#xe7;" horiz-adv-x="913" 
d="M434 -375h-145l135 271h151zM72 455q0 209 114 341t299 132q152 0 244 -80q96 -78 121 -213h-158q-14 74 -69 116t-138 42q-119 0 -186 -95q-72 -92 -72 -244t72 -243q68 -94 186 -94q81 0 137 42t70 115h158q-25 -135 -121 -213q-92 -80 -244 -79q-185 0 -299 132
t-114 341z" />
    <glyph glyph-name="egrave" unicode="&#xe8;" horiz-adv-x="935" 
d="M571 1057h-141l-182 274h160zM489 797q-104 0 -175 -68t-85 -186h484q-4 111 -62 183t-162 71zM483 928q181 0 283 -121t102 -326v-55h-643q2 -143 74 -229q74 -84 190 -84q84 -1 144 41t78 118h145q-25 -133 -121 -212t-246 -78q-186 0 -302 130q-115 130 -115 338
t114 345q115 133 297 133z" />
    <glyph glyph-name="eacute" unicode="&#xe9;" horiz-adv-x="935" 
d="M489 797q-104 0 -175 -68t-85 -186h484q-4 111 -62 183t-162 71zM483 928q181 0 283 -121t102 -326v-55h-643q2 -143 74 -229q74 -84 190 -84q84 -1 144 41t78 118h145q-25 -133 -121 -212t-246 -78q-186 0 -302 130q-115 130 -115 338t114 345q115 133 297 133z
M553 1057h-141l163 274h160z" />
    <glyph glyph-name="ecircumflex" unicode="&#xea;" horiz-adv-x="935" 
d="M489 797q-104 0 -175 -68t-85 -186h484q-4 111 -62 183t-162 71zM483 928q181 0 283 -121t102 -326v-55h-643q2 -143 74 -229q74 -84 190 -84q84 -1 144 41t78 118h145q-25 -133 -121 -212t-246 -78q-186 0 -302 130q-115 130 -115 338t114 345q115 133 297 133z
M563 1321l189 -279h-134l-126 181l-127 -181h-134l189 279h143z" />
    <glyph glyph-name="edieresis" unicode="&#xeb;" horiz-adv-x="935" 
d="M489 797q-104 0 -175 -68t-85 -186h484q-4 111 -62 183t-162 71zM483 928q181 0 283 -121t102 -326v-55h-643q2 -143 74 -229q74 -84 190 -84q84 -1 144 41t78 118h145q-25 -133 -121 -212t-246 -78q-186 0 -302 130q-115 130 -115 338t114 345q115 133 297 133z
M545 1171q1 41 27 68t68 27t65 -29q29 -23 29 -63t-29 -72q-31 -27 -67 -27t-67 27q-26 28 -26 69zM256 1172q0 38 28 66t70 28t64 -29q28 -23 28 -65t-28 -70t-65 -27q-38 0 -68 27q-29 32 -29 70z" />
    <glyph glyph-name="igrave" unicode="&#xec;" horiz-adv-x="428" 
d="M293 1057h-141l-183 274h160zM291 909v-909h-154v909h154z" />
    <glyph glyph-name="iacute" unicode="&#xed;" horiz-adv-x="428" 
d="M291 909v-909h-154v909h154zM274 1057h-141l164 274h160z" />
    <glyph glyph-name="icircumflex" unicode="&#xee;" horiz-adv-x="428" 
d="M291 909v-909h-154v909h154zM285 1321l151 -279h-131l-92 175l-92 -175h-129l151 279h142z" />
    <glyph glyph-name="idieresis" unicode="&#xef;" horiz-adv-x="428" 
d="M291 909v-909h-154v909h154zM248 1171q0 41 26 68t67 27q40 0 68 -28q27 -28 27 -66t-28 -70q-31 -27 -67 -27t-67 27q-26 28 -26 69zM-6 1173q0 39 26 66t67 27q40 0 68 -28q27 -28 27 -66t-26 -70q-33 -27 -68 -27t-68 27q-26 32 -26 71z" />
    <glyph glyph-name="eth" unicode="&#xf0;" horiz-adv-x="978" 
d="M752 450q0 155 -72 244q-68 92 -191 92t-190 -92q-72 -90 -72 -244t72 -241q69 -92 191 -92t190 92q72 86 72 241zM207 1331h201q102 -72 151 -121l174 60l35 -96l-129 -44q268 -303 268 -667q1 -217 -115 -349t-302 -132t-303 130q-116 130 -115 339q0 209 112 340
q113 131 289 131q127 0 211 -91h6q-47 104 -192 250l-213 -69l-37 96l164 53q-96 84 -205 162v8z" />
    <glyph glyph-name="ntilde" unicode="&#xf1;" horiz-adv-x="1001" 
d="M776 1296q0 -109 -39 -176q-43 -66 -105 -66t-130 60q-68 59 -94 60q-70 0 -70 -113h-98q0 109 39 176q43 66 105 66t128 -60q70 -59 96 -59q68 -1 70 112h98zM137 0v909h154v-114q43 59 115 94q66 39 153 39q152 0 236 -90t84 -242v-596h-156v571q0 99 -51 157
q-50 58 -140 58t-153 -47t-88 -123v-616h-154z" />
    <glyph glyph-name="ograve" unicode="&#xf2;" horiz-adv-x="978" 
d="M567 1057h-141l-182 274h159zM752 455q0 154 -72 245q-68 92 -191 92t-190 -92q-72 -92 -72 -246t70 -245q71 -92 193 -92t190 92q72 92 72 246zM907 455q0 -211 -116 -340q-113 -133 -301 -133t-302 133q-117 129 -116 340q0 211 116 340q113 133 301 133t302 -133
q116 -129 116 -340z" />
    <glyph glyph-name="oacute" unicode="&#xf3;" horiz-adv-x="978" 
d="M752 455q0 154 -72 245q-68 92 -191 92t-190 -92q-72 -92 -72 -246t70 -245q71 -92 193 -92t190 92q72 92 72 246zM907 455q0 -211 -116 -340q-113 -133 -301 -133t-302 133q-117 129 -116 340q0 211 116 340q113 133 301 133t302 -133q116 -129 116 -340zM549 1057h-141
l163 274h160z" />
    <glyph glyph-name="ocircumflex" unicode="&#xf4;" horiz-adv-x="978" 
d="M752 455q0 154 -72 245q-68 92 -191 92t-190 -92q-72 -92 -72 -246t70 -245q71 -92 193 -92t190 92q72 92 72 246zM907 455q0 -211 -116 -340q-113 -133 -301 -133t-302 133q-117 129 -116 340q0 211 116 340q113 133 301 133t302 -133q116 -129 116 -340zM561 1321
l189 -279h-134l-127 181l-127 -181h-133l189 279h143z" />
    <glyph glyph-name="otilde" unicode="&#xf5;" horiz-adv-x="978" 
d="M758 1296q0 -115 -41 -176q-37 -66 -115 -65q-49 0 -117 59t-96 60q-70 0 -70 -113h-98q0 115 41 176q37 66 115 66q49 1 117 -59t96 -60q67 -1 69 112h99zM752 455q0 154 -72 245q-68 92 -191 92t-190 -92q-72 -92 -72 -246t70 -245q71 -92 193 -92t190 92q72 92 72 246
zM907 455q0 -211 -116 -340q-113 -133 -301 -133t-302 133q-117 129 -116 340q0 211 116 340q113 133 301 133t302 -133q116 -129 116 -340z" />
    <glyph glyph-name="odieresis" unicode="&#xf6;" horiz-adv-x="978" 
d="M752 455q0 154 -72 245q-68 92 -191 92t-190 -92q-72 -92 -72 -246t70 -245q71 -92 193 -92t190 92q72 92 72 246zM907 455q0 -211 -116 -340q-113 -133 -301 -133t-302 133q-117 129 -116 340q0 211 116 340q113 133 301 133t302 -133q116 -129 116 -340zM541 1171
q1 41 27 68t68 27t64 -29q29 -23 29 -63t-29 -72q-30 -27 -66 -27t-67 27q-26 28 -26 69zM252 1172q0 38 28 66t70 28t64 -29q28 -23 28 -65t-28 -70t-65 -27q-38 0 -68 27q-29 32 -29 70z" />
    <glyph glyph-name="divide" unicode="&#xf7;" horiz-adv-x="1105" 
d="M451 279q0 41 28 73q31 31 74 31t74 -31q31 -32 31 -74t-32 -73q-30 -31 -73 -31t-74 31q-28 33 -28 74zM451 938q0 41 28 74q31 30 74 30t74 -30t31 -74q0 -43 -32 -74q-30 -30 -73 -30t-74 30q-28 33 -28 74zM150 545v127h806v-127h-806z" />
    <glyph glyph-name="oslash" unicode="&#xf8;" horiz-adv-x="999" 
d="M236 472q0 -132 40 -218l377 485q-66 53 -153 54q-124 0 -194 -94q-70 -95 -70 -227zM500 117q124 0 194 94q70 95 70 229t-45 217l-377 -487q66 -53 158 -53zM82 460q0 204 115 336t303 132q139 0 239 -76l86 109l84 -60l-94 -123q103 -132 103 -332t-115 -332
t-303 -132q-141 0 -244 77l-90 -116l-84 59l100 129q-100 125 -100 329z" />
    <glyph glyph-name="ugrave" unicode="&#xf9;" horiz-adv-x="997" 
d="M575 1057h-141l-182 274h160zM862 909v-909h-155v115q-39 -57 -110 -95t-155 -38q-154 0 -233 90q-84 86 -84 241v596h156v-571q0 -98 49 -156t137 -59q88 0 151 46t89 124v616h155z" />
    <glyph glyph-name="uacute" unicode="&#xfa;" horiz-adv-x="997" 
d="M862 909v-909h-155v115q-39 -57 -110 -95t-155 -38q-154 0 -233 90q-84 86 -84 241v596h156v-571q0 -98 49 -156t137 -59q88 0 151 46t89 124v616h155zM557 1057h-141l164 274h159z" />
    <glyph glyph-name="ucircumflex" unicode="&#xfb;" horiz-adv-x="997" 
d="M862 909v-909h-155v115q-39 -57 -110 -95t-155 -38q-154 0 -233 90q-84 86 -84 241v596h156v-571q0 -98 49 -156t137 -59q88 0 151 46t89 124v616h155zM569 1321l189 -279h-133l-127 181l-127 -181h-133l188 279h143z" />
    <glyph glyph-name="udieresis" unicode="&#xfc;" horiz-adv-x="997" 
d="M862 909v-909h-155v115q-39 -57 -110 -95t-155 -38q-154 0 -233 90q-84 86 -84 241v596h156v-571q0 -98 49 -156t137 -59q88 0 151 46t89 124v616h155zM549 1171q1 41 27 68t68 27t65 -29q29 -23 29 -63t-29 -72q-31 -27 -67 -27t-67 27q-26 28 -26 69zM260 1172
q0 38 28 66t70 28t64 -29q29 -23 29 -65t-28 -70t-66 -27q-38 0 -68 27q-29 32 -29 70z" />
    <glyph glyph-name="yacute" unicode="&#xfd;" horiz-adv-x="931" 
d="M526 1057h-141l164 274h160zM406 -348h-152l137 342l-354 915h166l268 -716l264 716h160z" />
    <glyph glyph-name="thorn" unicode="&#xfe;" horiz-adv-x="1028" 
d="M524 121q127 0 202 93q75 92 75 240t-75 241t-202 93q-70 0 -135 -38q-67 -45 -98 -111v-369q31 -66 98 -110q66 -39 135 -39zM547 -18q-159 0 -256 124v-454h-154v1679h154v-528q98 125 256 125q195 0 303 -137t106 -336q0 -199 -107 -336t-302 -137z" />
    <glyph glyph-name="ydieresis" unicode="&#xff;" horiz-adv-x="931" 
d="M516 1171q0 41 27 68t69 27t64 -29q29 -23 29 -63t-29 -72q-31 -27 -67 -27t-66 27q-27 28 -27 69zM227 1172q0 38 28 66t70 28t64 -29q29 -23 29 -65t-28 -70t-66 -27q-38 0 -68 27q-29 32 -29 70zM406 -348h-152l137 342l-354 915h166l268 -716l264 716h160z" />
  </font>
</defs>
</svg>
